<?xml version="1.0" encoding="UTF-8"?>
<svg xmlns="http://www.w3.org/2000/svg" xmlns:xlink="http://www.w3.org/1999/xlink" width="200.5pt" height="200.5pt" viewBox="0 0 200.5 200.5" version="1.1">
<g id="surface1">
<path style="fill:none;stroke-width:0.5;stroke-linecap:butt;stroke-linejoin:miter;stroke:rgb(0%,0%,100%);stroke-opacity:1;stroke-miterlimit:4;" d="M 366.333 256 L 341.333 256 L 341.333 306 L 366.333 306 L 378.833 293.5 L 378.833 268.5 L 366.333 256 " transform="matrix(1,0,0,1,-341.083,-255.75)"/>
<path style="fill:none;stroke-width:0.5;stroke-linecap:butt;stroke-linejoin:miter;stroke:rgb(0%,0%,100%);stroke-opacity:1;stroke-miterlimit:4;" d="M 391.333 256 L 366.333 256 L 361.473625 260.859375 L 361.473625 307.917969 L 370.625969 317.070312 L 390.67675 317.070312 L 400.700188 307.042969 L 400.700188 265.367188 L 391.333 256 " transform="matrix(1,0,0,1,-341.083,-255.75)"/>
<path style="fill:none;stroke-width:0.5;stroke-linecap:butt;stroke-linejoin:miter;stroke:rgb(0%,0%,100%);stroke-opacity:1;stroke-miterlimit:4;" d="M 387.157219 293.5 L 353.833 293.5 L 341.333 306 L 341.333 331 L 391.333 331 L 400.700188 321.632812 L 400.700188 307.042969 L 387.157219 293.5 " transform="matrix(1,0,0,1,-341.083,-255.75)"/>
<path style="fill:none;stroke-width:0.5;stroke-linecap:butt;stroke-linejoin:miter;stroke:rgb(0%,0%,100%);stroke-opacity:1;stroke-miterlimit:4;" d="M 377.403313 317.070312 L 355.262688 317.070312 L 341.333 331 L 341.333 356 L 344.262688 358.929688 L 393.067375 358.929688 L 405.528313 346.464844 L 405.528313 345.195312 L 377.403313 317.070312 " transform="matrix(1,0,0,1,-341.083,-255.75)"/>
<path style="fill:none;stroke-width:0.5;stroke-linecap:butt;stroke-linejoin:miter;stroke:rgb(0%,0%,100%);stroke-opacity:1;stroke-miterlimit:4;" d="M 441.333 256 L 391.333 256 L 391.333 267.824219 L 406.536125 283.027344 L 432.024406 283.027344 L 441.333 273.71875 L 441.333 256 " transform="matrix(1,0,0,1,-341.083,-255.75)"/>
<path style="fill:none;stroke-width:0.5;stroke-linecap:butt;stroke-linejoin:miter;stroke:rgb(0%,0%,100%);stroke-opacity:1;stroke-miterlimit:4;" d="M 427.223625 272.609375 L 396.118156 272.609375 L 395.372063 273.359375 L 395.372063 301.714844 L 415.700188 322.039062 L 438.708 322.039062 L 447.329094 313.417969 L 447.329094 292.71875 L 427.223625 272.609375 " transform="matrix(1,0,0,1,-341.083,-255.75)"/>
<path style="fill:none;stroke-width:0.5;stroke-linecap:butt;stroke-linejoin:miter;stroke:rgb(0%,0%,100%);stroke-opacity:1;stroke-miterlimit:4;" d="M 434.004875 305.28125 L 396.911125 305.28125 L 386.782219 315.410156 L 386.782219 326.449219 L 398.5205 338.1875 L 438.817375 338.1875 L 438.817375 310.09375 L 434.004875 305.28125 " transform="matrix(1,0,0,1,-341.083,-255.75)"/>
<path style="fill:none;stroke-width:0.5;stroke-linecap:butt;stroke-linejoin:miter;stroke:rgb(0%,0%,100%);stroke-opacity:1;stroke-miterlimit:4;" d="M 427.102531 326.472656 L 395.860344 326.472656 L 383.141594 339.191406 L 383.141594 348.21875 L 401.774406 366.855469 L 430.481438 366.855469 L 441.333 356 L 441.333 340.703125 L 427.102531 326.472656 " transform="matrix(1,0,0,1,-341.083,-255.75)"/>
<path style="fill:none;stroke-width:0.5;stroke-linecap:butt;stroke-linejoin:miter;stroke:rgb(0%,0%,100%);stroke-opacity:1;stroke-miterlimit:4;" d="M 383.754875 348.21875 L 349.11425 348.21875 L 341.333 356 L 341.333 381 L 344.059563 383.726562 L 388.379875 383.726562 L 397.793938 374.308594 L 397.793938 362.257812 L 383.754875 348.21875 " transform="matrix(1,0,0,1,-341.083,-255.75)"/>
<path style="fill:none;stroke-width:0.5;stroke-linecap:butt;stroke-linejoin:miter;stroke:rgb(0%,0%,100%);stroke-opacity:1;stroke-miterlimit:4;" d="M 377.852531 366.539062 L 355.793938 366.539062 L 341.333 381 L 341.333 406 L 344.165031 408.832031 L 388.500969 408.832031 L 399.668938 397.667969 L 399.668938 388.355469 L 377.852531 366.539062 " transform="matrix(1,0,0,1,-341.083,-255.75)"/>
<path style="fill:none;stroke-width:0.5;stroke-linecap:butt;stroke-linejoin:miter;stroke:rgb(0%,0%,100%);stroke-opacity:1;stroke-miterlimit:4;" d="M 369.946281 402.648438 L 344.684563 402.648438 L 341.333 406 L 341.333 456 L 366.333 456 L 376.129875 446.203125 L 376.129875 408.832031 L 369.946281 402.648438 " transform="matrix(1,0,0,1,-341.083,-255.75)"/>
<path style="fill:none;stroke-width:0.5;stroke-linecap:butt;stroke-linejoin:miter;stroke:rgb(0%,0%,100%);stroke-opacity:1;stroke-miterlimit:4;" d="M 370.711906 394.753906 L 364.790031 394.753906 L 355.481438 404.0625 L 355.481438 445.144531 L 366.333 456 L 391.333 456 L 395.977531 451.355469 L 395.977531 420.019531 L 370.711906 394.753906 " transform="matrix(1,0,0,1,-341.083,-255.75)"/>
<path style="fill:none;stroke-width:0.5;stroke-linecap:butt;stroke-linejoin:miter;stroke:rgb(0%,0%,100%);stroke-opacity:1;stroke-miterlimit:4;" d="M 436.735344 351.402344 L 392.98925 351.402344 L 377.852531 366.539062 L 396.899406 385.589844 L 433.266594 385.589844 L 446.524406 372.328125 L 446.524406 361.191406 L 436.735344 351.402344 " transform="matrix(1,0,0,1,-341.083,-255.75)"/>
<path style="fill:none;stroke-width:0.5;stroke-linecap:butt;stroke-linejoin:miter;stroke:rgb(0%,0%,100%);stroke-opacity:1;stroke-miterlimit:4;" d="M 428.938469 367.054688 L 403.11425 367.054688 L 376.129875 394.039062 L 376.129875 408.832031 L 381.55175 414.253906 L 441.129875 414.253906 L 448.661125 406.71875 L 448.661125 386.777344 L 428.938469 367.054688 " transform="matrix(1,0,0,1,-341.083,-255.75)"/>
<path style="fill:none;stroke-width:0.5;stroke-linecap:butt;stroke-linejoin:miter;stroke:rgb(0%,0%,100%);stroke-opacity:1;stroke-miterlimit:4;" d="M 399.665031 397.667969 L 399.668938 397.667969 L 379.571281 417.761719 L 379.571281 444.238281 L 391.333 456 L 416.333 456 L 419.477531 452.855469 L 419.477531 417.476562 L 399.665031 397.667969 " transform="matrix(1,0,0,1,-341.083,-255.75)"/>
<path style="fill:none;stroke-width:0.5;stroke-linecap:butt;stroke-linejoin:miter;stroke:rgb(0%,0%,100%);stroke-opacity:1;stroke-miterlimit:4;" d="M 445.977531 404.035156 L 416.825188 404.035156 L 407.653313 413.207031 L 407.653313 447.320312 L 416.333 456 L 441.333 456 L 448.661125 448.671875 L 448.661125 406.71875 L 445.977531 404.035156 " transform="matrix(1,0,0,1,-341.083,-255.75)"/>
<path style="fill:none;stroke-width:0.5;stroke-linecap:butt;stroke-linejoin:miter;stroke:rgb(0%,0%,100%);stroke-opacity:1;stroke-miterlimit:4;" d="M 466.333 256 L 441.333 256 L 434.004875 263.328125 L 434.004875 305.28125 L 442.141594 313.417969 L 455.17675 313.417969 L 466.333 302.257812 L 466.333 256 " transform="matrix(1,0,0,1,-341.083,-255.75)"/>
<path style="fill:none;stroke-width:0.5;stroke-linecap:butt;stroke-linejoin:miter;stroke:rgb(0%,0%,100%);stroke-opacity:1;stroke-miterlimit:4;" d="M 491.333 256 L 466.333 256 L 453.833 268.5 L 453.833 299.28125 L 468.887688 314.332031 L 483.000969 314.332031 L 492.731438 304.601562 L 492.731438 257.398438 L 491.333 256 " transform="matrix(1,0,0,1,-341.083,-255.75)"/>
<path style="fill:none;stroke-width:0.5;stroke-linecap:butt;stroke-linejoin:miter;stroke:rgb(0%,0%,100%);stroke-opacity:1;stroke-miterlimit:4;" d="M 473.504875 294.734375 L 448.508781 294.734375 L 434.317375 308.925781 L 434.317375 322.039062 L 442.61425 330.339844 L 494.48925 330.339844 L 498.250969 326.578125 L 498.250969 319.480469 L 473.504875 294.734375 " transform="matrix(1,0,0,1,-341.083,-255.75)"/>
<path style="fill:none;stroke-width:0.5;stroke-linecap:butt;stroke-linejoin:miter;stroke:rgb(0%,0%,100%);stroke-opacity:1;stroke-miterlimit:4;" d="M 475.465813 322.039062 L 434.317375 322.039062 L 434.317375 348.984375 L 442.2705 356.9375 L 484.524406 356.9375 L 497.442375 344.019531 L 475.465813 322.039062 " transform="matrix(1,0,0,1,-341.083,-255.75)"/>
<path style="fill:none;stroke-width:0.5;stroke-linecap:butt;stroke-linejoin:miter;stroke:rgb(0%,0%,100%);stroke-opacity:1;stroke-miterlimit:4;" d="M 516.333 256 L 491.333 256 L 475.434563 271.898438 L 475.434563 296.660156 L 489.383781 310.613281 L 505.321281 310.613281 L 522.836906 293.097656 L 522.836906 262.503906 L 516.333 256 " transform="matrix(1,0,0,1,-341.083,-255.75)"/>
<path style="fill:none;stroke-width:0.5;stroke-linecap:butt;stroke-linejoin:miter;stroke:rgb(0%,0%,100%);stroke-opacity:1;stroke-miterlimit:4;" d="M 541.333 256 L 516.333 256 L 503.094719 269.238281 L 503.094719 308.386719 L 506.348625 311.640625 L 535.692375 311.640625 L 541.333 306 L 541.333 256 " transform="matrix(1,0,0,1,-341.083,-255.75)"/>
<path style="fill:none;stroke-width:0.5;stroke-linecap:butt;stroke-linejoin:miter;stroke:rgb(0%,0%,100%);stroke-opacity:1;stroke-miterlimit:4;" d="M 492.731438 297.042969 L 472.747063 317.03125 L 472.747063 345.75 L 489.375969 362.375 L 510.125969 362.375 L 515.141594 357.359375 L 515.141594 319.453125 L 492.731438 297.042969 " transform="matrix(1,0,0,1,-341.083,-255.75)"/>
<path style="fill:none;stroke-width:0.5;stroke-linecap:butt;stroke-linejoin:miter;stroke:rgb(0%,0%,100%);stroke-opacity:1;stroke-miterlimit:4;" d="M 528.833 293.5 L 522.434563 293.5 L 505.321281 310.613281 L 505.321281 353.378906 L 512.223625 360.277344 L 537.055656 360.277344 L 541.333 356 L 541.333 306 L 528.833 293.5 " transform="matrix(1,0,0,1,-341.083,-255.75)"/>
<path style="fill:none;stroke-width:0.5;stroke-linecap:butt;stroke-linejoin:miter;stroke:rgb(0%,0%,100%);stroke-opacity:1;stroke-miterlimit:4;" d="M 458.641594 356 L 439.993156 356 L 428.938469 367.054688 L 428.938469 386.996094 L 448.661125 406.71875 L 456.6455 406.71875 L 474.958 388.40625 L 474.958 372.316406 L 458.641594 356 " transform="matrix(1,0,0,1,-341.083,-255.75)"/>
<path style="fill:none;stroke-width:0.5;stroke-linecap:butt;stroke-linejoin:miter;stroke:rgb(0%,0%,100%);stroke-opacity:1;stroke-miterlimit:4;" d="M 480.258781 349.054688 L 467.458 349.054688 L 450.997063 365.519531 L 450.997063 397.808594 L 465.665031 412.480469 L 474.442375 412.480469 L 493.583 393.339844 L 493.583 362.378906 L 480.258781 349.054688 " transform="matrix(1,0,0,1,-341.083,-255.75)"/>
<path style="fill:none;stroke-width:0.5;stroke-linecap:butt;stroke-linejoin:miter;stroke:rgb(0%,0%,100%);stroke-opacity:1;stroke-miterlimit:4;" d="M 497.442375 344.019531 L 477.196281 364.265625 L 477.196281 400.1875 L 481.965813 404.957031 L 504.875969 404.957031 L 516.333 393.5 L 516.333 362.910156 L 497.442375 344.019531 " transform="matrix(1,0,0,1,-341.083,-255.75)"/>
<path style="fill:none;stroke-width:0.5;stroke-linecap:butt;stroke-linejoin:miter;stroke:rgb(0%,0%,100%);stroke-opacity:1;stroke-miterlimit:4;" d="M 528.833 343.5 L 528.23925 343.5 L 499.672844 372.066406 L 499.672844 400.792969 L 511.125969 412.25 L 535.083 412.25 L 541.333 406 L 541.333 356 L 528.833 343.5 " transform="matrix(1,0,0,1,-341.083,-255.75)"/>
<path style="fill:none;stroke-width:0.5;stroke-linecap:butt;stroke-linejoin:miter;stroke:rgb(0%,0%,100%);stroke-opacity:1;stroke-miterlimit:4;" d="M 465.555656 388.546875 L 450.993156 388.546875 L 435.2705 404.273438 L 435.2705 419.214844 L 451.524406 435.472656 L 492.247063 435.472656 L 492.247063 415.238281 L 465.555656 388.546875 " transform="matrix(1,0,0,1,-341.083,-255.75)"/>
<path style="fill:none;stroke-width:0.5;stroke-linecap:butt;stroke-linejoin:miter;stroke:rgb(0%,0%,100%);stroke-opacity:1;stroke-miterlimit:4;" d="M 485.747063 428.972656 L 443.590813 428.972656 L 432.043938 440.523438 L 432.043938 446.707031 L 441.333 456 L 478.833 456 L 492.247063 442.585938 L 492.247063 435.472656 L 485.747063 428.972656 " transform="matrix(1,0,0,1,-341.083,-255.75)"/>
<path style="fill:none;stroke-width:0.5;stroke-linecap:butt;stroke-linejoin:miter;stroke:rgb(0%,0%,100%);stroke-opacity:1;stroke-miterlimit:4;" d="M 511.125969 400.792969 L 486.125969 400.792969 L 478.833 408.085938 L 478.833 456 L 503.833 456 L 522.583 437.25 L 522.583 412.25 L 511.125969 400.792969 " transform="matrix(1,0,0,1,-341.083,-255.75)"/>
<path style="fill:none;stroke-width:0.5;stroke-linecap:butt;stroke-linejoin:miter;stroke:rgb(0%,0%,100%);stroke-opacity:1;stroke-miterlimit:4;" d="M 528.833 393.5 L 516.333 393.5 L 503.833 406 L 503.833 456 L 541.333 456 L 541.333 406 L 528.833 393.5 " transform="matrix(1,0,0,1,-341.083,-255.75)"/>
</g>
</svg>
