<?xml version="1.0" encoding="UTF-8"?>
<svg xmlns="http://www.w3.org/2000/svg" xmlns:xlink="http://www.w3.org/1999/xlink" width="200.5pt" height="200.5pt" viewBox="0 0 200.5 200.5" version="1.1">
<g id="surface1">
<path style="fill:none;stroke-width:0.5;stroke-linecap:butt;stroke-linejoin:miter;stroke:rgb(0%,0%,100%);stroke-opacity:1;stroke-miterlimit:4;" d="M 366.333 256 L 341.333 256 L 341.333 306 L 366.333 306 L 378.833 293.5 L 378.833 268.5 L 366.333 256 L 341.333 256 L 341.333 281 L 343.418938 283.082031 L 361.473625 283.082031 L 366.333 278.222656 L 366.333 256 " transform="matrix(1,0,0,1,-341.083,-255.75)"/>
<path style="fill:none;stroke-width:0.5;stroke-linecap:butt;stroke-linejoin:miter;stroke:rgb(0%,0%,100%);stroke-opacity:1;stroke-miterlimit:4;" d="M 366.333 281 L 341.333 281 L 341.333 306 L 366.333 306 L 378.833 293.5 L 366.333 281 " transform="matrix(1,0,0,1,-341.083,-255.75)"/>
<path style="fill:none;stroke-width:0.5;stroke-linecap:butt;stroke-linejoin:miter;stroke:rgb(0%,0%,100%);stroke-opacity:1;stroke-miterlimit:4;" d="M 391.333 256 L 366.333 256 L 361.473625 260.859375 L 361.473625 307.917969 L 370.625969 317.070312 L 390.67675 317.070312 L 400.700188 307.042969 L 400.700188 265.367188 L 391.333 256 L 366.333 256 L 361.473625 260.859375 L 361.473625 283.085938 L 369.610344 291.222656 L 395.368156 291.222656 L 396.118156 290.476562 L 396.118156 260.785156 L 391.333 256 " transform="matrix(1,0,0,1,-341.083,-255.75)"/>
<path style="fill:none;stroke-width:0.5;stroke-linecap:butt;stroke-linejoin:miter;stroke:rgb(0%,0%,100%);stroke-opacity:1;stroke-miterlimit:4;" d="M 378.833 272.667969 L 371.891594 272.667969 L 361.473625 283.085938 L 361.473625 307.917969 L 370.625969 317.070312 L 390.67675 317.070312 L 400.700188 307.042969 L 400.700188 294.535156 L 378.833 272.667969 " transform="matrix(1,0,0,1,-341.083,-255.75)"/>
<path style="fill:none;stroke-width:0.5;stroke-linecap:butt;stroke-linejoin:miter;stroke:rgb(0%,0%,100%);stroke-opacity:1;stroke-miterlimit:4;" d="M 387.157219 293.5 L 353.833 293.5 L 341.333 306 L 341.333 331 L 391.333 331 L 400.700188 321.632812 L 400.700188 307.042969 L 387.157219 293.5 " transform="matrix(1,0,0,1,-341.083,-255.75)"/>
<path style="fill:none;stroke-width:0.5;stroke-linecap:butt;stroke-linejoin:miter;stroke:rgb(0%,0%,100%);stroke-opacity:1;stroke-miterlimit:4;" d="M 362.508781 301.027344 L 346.305656 301.027344 L 341.333 306 L 341.333 331 L 353.321281 331 L 362.508781 321.8125 L 362.508781 301.027344 " transform="matrix(1,0,0,1,-341.083,-255.75)"/>
<path style="fill:none;stroke-width:0.5;stroke-linecap:butt;stroke-linejoin:miter;stroke:rgb(0%,0%,100%);stroke-opacity:1;stroke-miterlimit:4;" d="M 387.157219 293.5 L 370.036125 293.5 L 357.368156 306.171875 L 357.368156 326.953125 L 361.415031 331 L 391.333 331 L 400.700188 321.632812 L 400.700188 307.042969 L 387.157219 293.5 " transform="matrix(1,0,0,1,-341.083,-255.75)"/>
<path style="fill:none;stroke-width:0.5;stroke-linecap:butt;stroke-linejoin:miter;stroke:rgb(0%,0%,100%);stroke-opacity:1;stroke-miterlimit:4;" d="M 377.403313 317.070312 L 355.262688 317.070312 L 341.333 331 L 341.333 356 L 344.262688 358.929688 L 393.067375 358.929688 L 405.528313 346.464844 L 405.528313 345.195312 L 377.403313 317.070312 " transform="matrix(1,0,0,1,-341.083,-255.75)"/>
<path style="fill:none;stroke-width:0.5;stroke-linecap:butt;stroke-linejoin:miter;stroke:rgb(0%,0%,100%);stroke-opacity:1;stroke-miterlimit:4;" d="M 370.625969 317.070312 L 355.262688 317.070312 L 341.333 331 L 341.333 356 L 344.262688 358.929688 L 359.508781 358.929688 L 370.625969 347.8125 L 370.625969 317.070312 " transform="matrix(1,0,0,1,-341.083,-255.75)"/>
<path style="fill:none;stroke-width:0.5;stroke-linecap:butt;stroke-linejoin:miter;stroke:rgb(0%,0%,100%);stroke-opacity:1;stroke-miterlimit:4;" d="M 377.403313 317.070312 L 370.622063 317.070312 L 359.508781 328.183594 L 359.508781 358.925781 L 359.512688 358.929688 L 393.067375 358.929688 L 405.528313 346.464844 L 405.528313 345.195312 L 377.403313 317.070312 " transform="matrix(1,0,0,1,-341.083,-255.75)"/>
<path style="fill:none;stroke-width:0.5;stroke-linecap:butt;stroke-linejoin:miter;stroke:rgb(0%,0%,100%);stroke-opacity:1;stroke-miterlimit:4;" d="M 441.333 256 L 391.333 256 L 391.333 267.824219 L 406.536125 283.027344 L 432.024406 283.027344 L 441.333 273.71875 L 441.333 256 " transform="matrix(1,0,0,1,-341.083,-255.75)"/>
<path style="fill:none;stroke-width:0.5;stroke-linecap:butt;stroke-linejoin:miter;stroke:rgb(0%,0%,100%);stroke-opacity:1;stroke-miterlimit:4;" d="M 416.333 256 L 391.333 256 L 391.333 267.824219 L 406.536125 283.027344 L 409.915031 283.027344 L 421.227531 271.714844 L 421.227531 260.890625 L 416.333 256 " transform="matrix(1,0,0,1,-341.083,-255.75)"/>
<path style="fill:none;stroke-width:0.5;stroke-linecap:butt;stroke-linejoin:miter;stroke:rgb(0%,0%,100%);stroke-opacity:1;stroke-miterlimit:4;" d="M 441.333 256 L 416.333 256 L 409.915031 262.417969 L 409.915031 283.027344 L 409.911125 283.027344 L 432.024406 283.027344 L 441.333 273.71875 L 441.333 256 " transform="matrix(1,0,0,1,-341.083,-255.75)"/>
<path style="fill:none;stroke-width:0.5;stroke-linecap:butt;stroke-linejoin:miter;stroke:rgb(0%,0%,100%);stroke-opacity:1;stroke-miterlimit:4;" d="M 427.223625 272.609375 L 396.118156 272.609375 L 395.372063 273.359375 L 395.372063 301.714844 L 415.700188 322.039062 L 438.708 322.039062 L 447.329094 313.417969 L 447.329094 292.71875 L 427.223625 272.609375 " transform="matrix(1,0,0,1,-341.083,-255.75)"/>
<path style="fill:none;stroke-width:0.5;stroke-linecap:butt;stroke-linejoin:miter;stroke:rgb(0%,0%,100%);stroke-opacity:1;stroke-miterlimit:4;" d="M 399.497063 272.609375 L 396.118156 272.609375 L 395.372063 273.359375 L 395.372063 301.714844 L 408.297844 314.640625 L 417.805656 314.640625 L 418.7705 313.675781 L 418.7705 291.882812 L 399.497063 272.609375 " transform="matrix(1,0,0,1,-341.083,-255.75)"/>
<path style="fill:none;stroke-width:0.5;stroke-linecap:butt;stroke-linejoin:miter;stroke:rgb(0%,0%,100%);stroke-opacity:1;stroke-miterlimit:4;" d="M 434.833 280.21875 L 412.723625 280.21875 L 409.915031 283.027344 L 409.915031 306.753906 L 425.200188 322.039062 L 438.708 322.039062 L 447.329094 313.417969 L 447.329094 292.71875 L 434.833 280.21875 " transform="matrix(1,0,0,1,-341.083,-255.75)"/>
<path style="fill:none;stroke-width:0.5;stroke-linecap:butt;stroke-linejoin:miter;stroke:rgb(0%,0%,100%);stroke-opacity:1;stroke-miterlimit:4;" d="M 434.004875 305.28125 L 396.911125 305.28125 L 386.782219 315.410156 L 386.782219 326.449219 L 398.5205 338.1875 L 438.817375 338.1875 L 438.817375 310.09375 L 434.004875 305.28125 " transform="matrix(1,0,0,1,-341.083,-255.75)"/>
<path style="fill:none;stroke-width:0.5;stroke-linecap:butt;stroke-linejoin:miter;stroke:rgb(0%,0%,100%);stroke-opacity:1;stroke-miterlimit:4;" d="M 410.204094 307.042969 L 395.149406 307.042969 L 386.782219 315.410156 L 386.782219 326.449219 L 391.333 331 L 402.293938 331 L 417.80175 315.492188 L 417.80175 314.640625 L 410.204094 307.042969 " transform="matrix(1,0,0,1,-341.083,-255.75)"/>
<path style="fill:none;stroke-width:0.5;stroke-linecap:butt;stroke-linejoin:miter;stroke:rgb(0%,0%,100%);stroke-opacity:1;stroke-miterlimit:4;" d="M 434.004875 305.28125 L 427.161125 305.28125 L 406.825188 325.617188 L 406.825188 326.472656 L 418.540031 338.1875 L 438.817375 338.1875 L 438.817375 310.09375 L 434.004875 305.28125 " transform="matrix(1,0,0,1,-341.083,-255.75)"/>
<path style="fill:none;stroke-width:0.5;stroke-linecap:butt;stroke-linejoin:miter;stroke:rgb(0%,0%,100%);stroke-opacity:1;stroke-miterlimit:4;" d="M 427.102531 326.472656 L 395.860344 326.472656 L 383.141594 339.191406 L 383.141594 348.21875 L 401.774406 366.855469 L 430.481438 366.855469 L 441.333 356 L 441.333 340.703125 L 427.102531 326.472656 " transform="matrix(1,0,0,1,-341.083,-255.75)"/>
<path style="fill:none;stroke-width:0.5;stroke-linecap:butt;stroke-linejoin:miter;stroke:rgb(0%,0%,100%);stroke-opacity:1;stroke-miterlimit:4;" d="M 415.11425 326.472656 L 395.860344 326.472656 L 383.141594 339.191406 L 383.141594 348.21875 L 401.774406 366.855469 L 410.5205 366.855469 L 421.602531 355.773438 L 421.602531 332.960938 L 415.11425 326.472656 " transform="matrix(1,0,0,1,-341.083,-255.75)"/>
<path style="fill:none;stroke-width:0.5;stroke-linecap:butt;stroke-linejoin:miter;stroke:rgb(0%,0%,100%);stroke-opacity:1;stroke-miterlimit:4;" d="M 433.594719 332.960938 L 419.032219 332.960938 L 405.528313 346.464844 L 405.528313 361.859375 L 410.5205 366.855469 L 430.481438 366.855469 L 441.333 356 L 441.333 340.703125 L 433.594719 332.960938 " transform="matrix(1,0,0,1,-341.083,-255.75)"/>
<path style="fill:none;stroke-width:0.5;stroke-linecap:butt;stroke-linejoin:miter;stroke:rgb(0%,0%,100%);stroke-opacity:1;stroke-miterlimit:4;" d="M 383.754875 348.21875 L 349.11425 348.21875 L 341.333 356 L 341.333 381 L 344.059563 383.726562 L 388.379875 383.726562 L 397.793938 374.308594 L 397.793938 362.257812 L 383.754875 348.21875 " transform="matrix(1,0,0,1,-341.083,-255.75)"/>
<path style="fill:none;stroke-width:0.5;stroke-linecap:butt;stroke-linejoin:miter;stroke:rgb(0%,0%,100%);stroke-opacity:1;stroke-miterlimit:4;" d="M 356.583 356 L 341.333 356 L 341.333 381 L 357.258781 381 L 360.981438 377.277344 L 360.981438 360.398438 L 356.583 356 " transform="matrix(1,0,0,1,-341.083,-255.75)"/>
<path style="fill:none;stroke-width:0.5;stroke-linecap:butt;stroke-linejoin:miter;stroke:rgb(0%,0%,100%);stroke-opacity:1;stroke-miterlimit:4;" d="M 383.754875 348.21875 L 370.219719 348.21875 L 359.508781 358.925781 L 359.508781 375.804688 L 367.430656 383.726562 L 388.379875 383.726562 L 397.793938 374.308594 L 397.793938 362.257812 L 383.754875 348.21875 " transform="matrix(1,0,0,1,-341.083,-255.75)"/>
<path style="fill:none;stroke-width:0.5;stroke-linecap:butt;stroke-linejoin:miter;stroke:rgb(0%,0%,100%);stroke-opacity:1;stroke-miterlimit:4;" d="M 377.852531 366.539062 L 355.793938 366.539062 L 341.333 381 L 341.333 406 L 344.165031 408.832031 L 388.500969 408.832031 L 399.668938 397.667969 L 399.668938 388.355469 L 377.852531 366.539062 " transform="matrix(1,0,0,1,-341.083,-255.75)"/>
<path style="fill:none;stroke-width:0.5;stroke-linecap:butt;stroke-linejoin:miter;stroke:rgb(0%,0%,100%);stroke-opacity:1;stroke-miterlimit:4;" d="M 360.981438 377.277344 L 345.055656 377.277344 L 341.333 381 L 341.333 406 L 359.461906 406 L 370.711906 394.75 L 370.711906 387.007812 L 360.981438 377.277344 " transform="matrix(1,0,0,1,-341.083,-255.75)"/>
<path style="fill:none;stroke-width:0.5;stroke-linecap:butt;stroke-linejoin:miter;stroke:rgb(0%,0%,100%);stroke-opacity:1;stroke-miterlimit:4;" d="M 377.852531 366.539062 L 371.719719 366.539062 L 360.981438 377.277344 L 360.981438 393.683594 L 376.133781 408.832031 L 388.500969 408.832031 L 399.668938 397.667969 L 399.668938 388.355469 L 377.852531 366.539062 " transform="matrix(1,0,0,1,-341.083,-255.75)"/>
<path style="fill:none;stroke-width:0.5;stroke-linecap:butt;stroke-linejoin:miter;stroke:rgb(0%,0%,100%);stroke-opacity:1;stroke-miterlimit:4;" d="M 369.946281 402.648438 L 344.684563 402.648438 L 341.333 406 L 341.333 456 L 366.333 456 L 376.129875 446.203125 L 376.129875 408.832031 L 369.946281 402.648438 L 344.684563 402.648438 L 341.333 406 L 341.333 431 L 353.961906 431 L 376.129875 408.832031 L 369.946281 402.648438 " transform="matrix(1,0,0,1,-341.083,-255.75)"/>
<path style="fill:none;stroke-width:0.5;stroke-linecap:butt;stroke-linejoin:miter;stroke:rgb(0%,0%,100%);stroke-opacity:1;stroke-miterlimit:4;" d="M 368.418938 418.5 L 353.833 418.5 L 341.333 431 L 341.333 456 L 366.333 456 L 373.625969 448.707031 L 373.625969 423.707031 L 368.418938 418.5 " transform="matrix(1,0,0,1,-341.083,-255.75)"/>
<path style="fill:none;stroke-width:0.5;stroke-linecap:butt;stroke-linejoin:miter;stroke:rgb(0%,0%,100%);stroke-opacity:1;stroke-miterlimit:4;" d="M 370.711906 394.753906 L 364.790031 394.753906 L 355.481438 404.0625 L 355.481438 445.144531 L 366.333 456 L 391.333 456 L 395.977531 451.355469 L 395.977531 420.019531 L 370.711906 394.753906 L 364.790031 394.753906 L 355.481438 404.0625 L 355.481438 445.144531 L 366.333 456 L 379.571281 442.761719 L 379.571281 403.613281 L 370.711906 394.753906 " transform="matrix(1,0,0,1,-341.083,-255.75)"/>
<path style="fill:none;stroke-width:0.5;stroke-linecap:butt;stroke-linejoin:miter;stroke:rgb(0%,0%,100%);stroke-opacity:1;stroke-miterlimit:4;" d="M 384.790031 408.832031 L 376.129875 408.832031 L 366.333 418.628906 L 366.333 456 L 391.333 456 L 395.977531 451.355469 L 395.977531 420.019531 L 384.790031 408.832031 " transform="matrix(1,0,0,1,-341.083,-255.75)"/>
<path style="fill:none;stroke-width:0.5;stroke-linecap:butt;stroke-linejoin:miter;stroke:rgb(0%,0%,100%);stroke-opacity:1;stroke-miterlimit:4;" d="M 436.735344 351.402344 L 392.98925 351.402344 L 377.852531 366.539062 L 396.899406 385.589844 L 433.266594 385.589844 L 446.524406 372.328125 L 446.524406 361.191406 L 436.735344 351.402344 " transform="matrix(1,0,0,1,-341.083,-255.75)"/>
<path style="fill:none;stroke-width:0.5;stroke-linecap:butt;stroke-linejoin:miter;stroke:rgb(0%,0%,100%);stroke-opacity:1;stroke-miterlimit:4;" d="M 403.438469 359.769531 L 384.618156 359.769531 L 377.852531 366.539062 L 396.899406 385.589844 L 414.543938 385.589844 L 414.543938 370.875 L 403.438469 359.769531 " transform="matrix(1,0,0,1,-341.083,-255.75)"/>
<path style="fill:none;stroke-width:0.5;stroke-linecap:butt;stroke-linejoin:miter;stroke:rgb(0%,0%,100%);stroke-opacity:1;stroke-miterlimit:4;" d="M 436.735344 351.402344 L 423.387688 351.402344 L 410.5205 364.269531 L 410.5205 381.566406 L 414.543938 385.589844 L 433.266594 385.589844 L 446.524406 372.328125 L 446.524406 361.191406 L 436.735344 351.402344 " transform="matrix(1,0,0,1,-341.083,-255.75)"/>
<path style="fill:none;stroke-width:0.5;stroke-linecap:butt;stroke-linejoin:miter;stroke:rgb(0%,0%,100%);stroke-opacity:1;stroke-miterlimit:4;" d="M 428.938469 367.054688 L 403.11425 367.054688 L 376.129875 394.039062 L 376.129875 408.832031 L 381.55175 414.253906 L 441.129875 414.253906 L 448.661125 406.71875 L 448.661125 386.777344 L 428.938469 367.054688 " transform="matrix(1,0,0,1,-341.083,-255.75)"/>
<path style="fill:none;stroke-width:0.5;stroke-linecap:butt;stroke-linejoin:miter;stroke:rgb(0%,0%,100%);stroke-opacity:1;stroke-miterlimit:4;" d="M 403.262688 374.308594 L 395.860344 374.308594 L 376.129875 394.039062 L 376.129875 408.832031 L 381.55175 414.253906 L 412.305656 414.253906 L 422.524406 404.035156 L 422.524406 393.566406 L 403.262688 374.308594 " transform="matrix(1,0,0,1,-341.083,-255.75)"/>
<path style="fill:none;stroke-width:0.5;stroke-linecap:butt;stroke-linejoin:miter;stroke:rgb(0%,0%,100%);stroke-opacity:1;stroke-miterlimit:4;" d="M 428.938469 367.054688 L 399.668938 396.328125 L 399.668938 397.667969 L 408.715813 406.71875 L 448.661125 406.71875 L 448.661125 386.777344 L 428.938469 367.054688 " transform="matrix(1,0,0,1,-341.083,-255.75)"/>
<path style="fill:none;stroke-width:0.5;stroke-linecap:butt;stroke-linejoin:miter;stroke:rgb(0%,0%,100%);stroke-opacity:1;stroke-miterlimit:4;" d="M 399.665031 397.667969 L 399.668938 397.667969 L 379.571281 417.761719 L 379.571281 444.238281 L 391.333 456 L 416.333 456 L 419.477531 452.855469 L 419.477531 417.476562 L 399.665031 397.667969 L 399.668938 397.667969 L 390.211906 407.121094 L 390.211906 426.683594 L 404.387688 440.863281 L 409.985344 440.863281 L 419.477531 431.371094 L 419.477531 417.476562 L 399.665031 397.667969 " transform="matrix(1,0,0,1,-341.083,-255.75)"/>
<path style="fill:none;stroke-width:0.5;stroke-linecap:butt;stroke-linejoin:miter;stroke:rgb(0%,0%,100%);stroke-opacity:1;stroke-miterlimit:4;" d="M 401.575188 432.453125 L 388.567375 432.453125 L 379.571281 441.449219 L 379.571281 444.238281 L 391.333 456 L 416.333 456 L 416.333 447.210938 L 401.575188 432.453125 " transform="matrix(1,0,0,1,-341.083,-255.75)"/>
<path style="fill:none;stroke-width:0.5;stroke-linecap:butt;stroke-linejoin:miter;stroke:rgb(0%,0%,100%);stroke-opacity:1;stroke-miterlimit:4;" d="M 445.977531 404.035156 L 416.825188 404.035156 L 407.653313 413.207031 L 407.653313 447.320312 L 416.333 456 L 441.333 456 L 448.661125 448.671875 L 448.661125 406.71875 L 445.977531 404.035156 L 416.825188 404.035156 L 407.653313 413.207031 L 407.653313 416.132812 L 432.043938 440.523438 L 448.661125 423.902344 L 448.661125 406.71875 L 445.977531 404.035156 " transform="matrix(1,0,0,1,-341.083,-255.75)"/>
<path style="fill:none;stroke-width:0.5;stroke-linecap:butt;stroke-linejoin:miter;stroke:rgb(0%,0%,100%);stroke-opacity:1;stroke-miterlimit:4;" d="M 435.266594 418.820312 L 428.219719 418.820312 L 409.985344 437.054688 L 409.985344 449.652344 L 416.333 456 L 441.333 456 L 447.833 449.5 L 447.833 431.386719 L 435.266594 418.820312 " transform="matrix(1,0,0,1,-341.083,-255.75)"/>
<path style="fill:none;stroke-width:0.5;stroke-linecap:butt;stroke-linejoin:miter;stroke:rgb(0%,0%,100%);stroke-opacity:1;stroke-miterlimit:4;" d="M 466.333 256 L 441.333 256 L 434.004875 263.328125 L 434.004875 305.28125 L 442.141594 313.417969 L 455.17675 313.417969 L 466.333 302.257812 L 466.333 256 L 441.333 256 L 434.833 262.5 L 434.833 281.058594 L 448.508781 294.734375 L 466.333 276.90625 L 466.333 256 " transform="matrix(1,0,0,1,-341.083,-255.75)"/>
<path style="fill:none;stroke-width:0.5;stroke-linecap:butt;stroke-linejoin:miter;stroke:rgb(0%,0%,100%);stroke-opacity:1;stroke-miterlimit:4;" d="M 453.833 269.011719 L 446.043938 269.011719 L 434.004875 281.046875 L 434.004875 305.28125 L 442.141594 313.417969 L 455.17675 313.417969 L 463.188469 305.402344 L 463.188469 278.367188 L 453.833 269.011719 " transform="matrix(1,0,0,1,-341.083,-255.75)"/>
<path style="fill:none;stroke-width:0.5;stroke-linecap:butt;stroke-linejoin:miter;stroke:rgb(0%,0%,100%);stroke-opacity:1;stroke-miterlimit:4;" d="M 491.333 256 L 466.333 256 L 453.833 268.5 L 453.833 299.28125 L 468.887688 314.332031 L 483.000969 314.332031 L 492.731438 304.601562 L 492.731438 257.398438 L 491.333 256 L 466.333 256 L 453.833 268.5 L 453.833 275.078125 L 463.188469 284.4375 L 481.80175 284.4375 L 491.333 274.902344 L 491.333 256 " transform="matrix(1,0,0,1,-341.083,-255.75)"/>
<path style="fill:none;stroke-width:0.5;stroke-linecap:butt;stroke-linejoin:miter;stroke:rgb(0%,0%,100%);stroke-opacity:1;stroke-miterlimit:4;" d="M 478.231438 271.09375 L 472.672844 271.09375 L 461.571281 282.195312 L 461.571281 307.019531 L 468.887688 314.332031 L 483.000969 314.332031 L 492.731438 304.601562 L 492.731438 285.589844 L 478.231438 271.09375 " transform="matrix(1,0,0,1,-341.083,-255.75)"/>
<path style="fill:none;stroke-width:0.5;stroke-linecap:butt;stroke-linejoin:miter;stroke:rgb(0%,0%,100%);stroke-opacity:1;stroke-miterlimit:4;" d="M 473.504875 294.734375 L 448.508781 294.734375 L 434.317375 308.925781 L 434.317375 322.039062 L 442.61425 330.339844 L 494.48925 330.339844 L 498.250969 326.578125 L 498.250969 319.480469 L 473.504875 294.734375 " transform="matrix(1,0,0,1,-341.083,-255.75)"/>
<path style="fill:none;stroke-width:0.5;stroke-linecap:butt;stroke-linejoin:miter;stroke:rgb(0%,0%,100%);stroke-opacity:1;stroke-miterlimit:4;" d="M 449.286125 294.734375 L 448.508781 294.734375 L 434.317375 308.925781 L 434.317375 322.039062 L 440.579094 328.304688 L 453.852531 328.304688 L 461.571281 320.582031 L 461.571281 307.019531 L 449.286125 294.734375 " transform="matrix(1,0,0,1,-341.083,-255.75)"/>
<path style="fill:none;stroke-width:0.5;stroke-linecap:butt;stroke-linejoin:miter;stroke:rgb(0%,0%,100%);stroke-opacity:1;stroke-miterlimit:4;" d="M 475.434563 296.664062 L 471.930656 296.664062 L 453.848625 314.742188 L 453.848625 328.304688 L 455.883781 330.339844 L 494.48925 330.339844 L 498.250969 326.578125 L 498.250969 319.480469 L 475.434563 296.664062 " transform="matrix(1,0,0,1,-341.083,-255.75)"/>
<path style="fill:none;stroke-width:0.5;stroke-linecap:butt;stroke-linejoin:miter;stroke:rgb(0%,0%,100%);stroke-opacity:1;stroke-miterlimit:4;" d="M 475.465813 322.039062 L 434.317375 322.039062 L 434.317375 348.984375 L 442.2705 356.9375 L 484.524406 356.9375 L 497.442375 344.019531 L 475.465813 322.039062 " transform="matrix(1,0,0,1,-341.083,-255.75)"/>
<path style="fill:none;stroke-width:0.5;stroke-linecap:butt;stroke-linejoin:miter;stroke:rgb(0%,0%,100%);stroke-opacity:1;stroke-miterlimit:4;" d="M 447.586906 322.039062 L 434.317375 322.039062 L 434.317375 348.984375 L 442.2705 356.9375 L 459.575188 356.9375 L 461.981438 354.535156 L 461.981438 336.433594 L 447.586906 322.039062 " transform="matrix(1,0,0,1,-341.083,-255.75)"/>
<path style="fill:none;stroke-width:0.5;stroke-linecap:butt;stroke-linejoin:miter;stroke:rgb(0%,0%,100%);stroke-opacity:1;stroke-miterlimit:4;" d="M 481.727531 328.304688 L 453.848625 328.304688 L 453.848625 351.210938 L 459.575188 356.9375 L 484.524406 356.9375 L 497.442375 344.019531 L 481.727531 328.304688 " transform="matrix(1,0,0,1,-341.083,-255.75)"/>
<path style="fill:none;stroke-width:0.5;stroke-linecap:butt;stroke-linejoin:miter;stroke:rgb(0%,0%,100%);stroke-opacity:1;stroke-miterlimit:4;" d="M 516.333 256 L 491.333 256 L 475.434563 271.898438 L 475.434563 296.660156 L 489.383781 310.613281 L 505.321281 310.613281 L 522.836906 293.097656 L 522.836906 262.503906 L 516.333 256 L 491.333 256 L 486.688469 260.644531 L 486.688469 279.546875 L 495.434563 288.292969 L 509.043938 288.292969 L 522.836906 274.496094 L 522.836906 262.503906 L 516.333 256 " transform="matrix(1,0,0,1,-341.083,-255.75)"/>
<path style="fill:none;stroke-width:0.5;stroke-linecap:butt;stroke-linejoin:miter;stroke:rgb(0%,0%,100%);stroke-opacity:1;stroke-miterlimit:4;" d="M 503.094719 270.550781 L 495.684563 270.550781 L 475.434563 290.804688 L 475.434563 296.660156 L 489.383781 310.613281 L 505.321281 310.613281 L 509.043938 306.890625 L 509.043938 276.496094 L 503.094719 270.550781 " transform="matrix(1,0,0,1,-341.083,-255.75)"/>
<path style="fill:none;stroke-width:0.5;stroke-linecap:butt;stroke-linejoin:miter;stroke:rgb(0%,0%,100%);stroke-opacity:1;stroke-miterlimit:4;" d="M 541.333 256 L 516.333 256 L 503.094719 269.238281 L 503.094719 308.386719 L 506.348625 311.640625 L 535.692375 311.640625 L 541.333 306 L 541.333 256 L 516.333 256 L 503.094719 269.238281 L 503.094719 270.550781 L 526.043938 293.5 L 528.833 293.5 L 541.333 281 L 541.333 256 " transform="matrix(1,0,0,1,-341.083,-255.75)"/>
<path style="fill:none;stroke-width:0.5;stroke-linecap:butt;stroke-linejoin:miter;stroke:rgb(0%,0%,100%);stroke-opacity:1;stroke-miterlimit:4;" d="M 534.7705 274.4375 L 522.836906 274.4375 L 505.321281 291.953125 L 505.321281 310.613281 L 506.348625 311.640625 L 535.692375 311.640625 L 541.333 306 L 541.333 281 L 534.7705 274.4375 " transform="matrix(1,0,0,1,-341.083,-255.75)"/>
<path style="fill:none;stroke-width:0.5;stroke-linecap:butt;stroke-linejoin:miter;stroke:rgb(0%,0%,100%);stroke-opacity:1;stroke-miterlimit:4;" d="M 492.731438 297.042969 L 472.747063 317.03125 L 472.747063 345.75 L 489.375969 362.375 L 510.125969 362.375 L 515.141594 357.359375 L 515.141594 319.453125 L 492.731438 297.042969 L 472.747063 317.03125 L 472.747063 330.335938 L 486.430656 344.019531 L 502.122063 344.019531 L 515.141594 331 L 515.141594 319.453125 L 492.731438 297.042969 " transform="matrix(1,0,0,1,-341.083,-255.75)"/>
<path style="fill:none;stroke-width:0.5;stroke-linecap:butt;stroke-linejoin:miter;stroke:rgb(0%,0%,100%);stroke-opacity:1;stroke-miterlimit:4;" d="M 510.719719 326.578125 L 498.250969 326.578125 L 476.055656 348.773438 L 476.055656 349.058594 L 489.375969 362.375 L 510.125969 362.375 L 515.141594 357.359375 L 515.141594 331 L 510.719719 326.578125 " transform="matrix(1,0,0,1,-341.083,-255.75)"/>
<path style="fill:none;stroke-width:0.5;stroke-linecap:butt;stroke-linejoin:miter;stroke:rgb(0%,0%,100%);stroke-opacity:1;stroke-miterlimit:4;" d="M 528.833 293.5 L 522.434563 293.5 L 505.321281 310.613281 L 505.321281 353.378906 L 512.223625 360.277344 L 537.055656 360.277344 L 541.333 356 L 541.333 306 L 528.833 293.5 L 522.434563 293.5 L 505.321281 310.613281 L 505.321281 321.179688 L 515.141594 331 L 541.333 331 L 541.333 306 L 528.833 293.5 " transform="matrix(1,0,0,1,-341.083,-255.75)"/>
<path style="fill:none;stroke-width:0.5;stroke-linecap:butt;stroke-linejoin:miter;stroke:rgb(0%,0%,100%);stroke-opacity:1;stroke-miterlimit:4;" d="M 541.333 331 L 515.141594 331 L 512.223625 333.921875 L 512.223625 360.277344 L 537.055656 360.277344 L 541.333 356 L 541.333 331 " transform="matrix(1,0,0,1,-341.083,-255.75)"/>
<path style="fill:none;stroke-width:0.5;stroke-linecap:butt;stroke-linejoin:miter;stroke:rgb(0%,0%,100%);stroke-opacity:1;stroke-miterlimit:4;" d="M 458.641594 356 L 439.993156 356 L 428.938469 367.054688 L 428.938469 386.996094 L 448.661125 406.71875 L 456.6455 406.71875 L 474.958 388.40625 L 474.958 372.316406 L 458.641594 356 L 439.993156 356 L 428.938469 367.054688 L 436.731438 374.847656 L 463.157219 374.847656 L 463.157219 360.519531 L 458.641594 356 " transform="matrix(1,0,0,1,-341.083,-255.75)"/>
<path style="fill:none;stroke-width:0.5;stroke-linecap:butt;stroke-linejoin:miter;stroke:rgb(0%,0%,100%);stroke-opacity:1;stroke-miterlimit:4;" d="M 460.637688 372.328125 L 444.219719 372.328125 L 433.532219 383.015625 L 433.532219 391.589844 L 448.661125 406.71875 L 456.6455 406.71875 L 474.958 388.40625 L 474.958 386.648438 L 460.637688 372.328125 " transform="matrix(1,0,0,1,-341.083,-255.75)"/>
<path style="fill:none;stroke-width:0.5;stroke-linecap:butt;stroke-linejoin:miter;stroke:rgb(0%,0%,100%);stroke-opacity:1;stroke-miterlimit:4;" d="M 480.258781 349.054688 L 467.458 349.054688 L 450.997063 365.519531 L 450.997063 397.808594 L 465.665031 412.480469 L 474.442375 412.480469 L 493.583 393.339844 L 493.583 362.378906 L 480.258781 349.054688 L 467.458 349.054688 L 459.575188 356.9375 L 459.575188 373.023438 L 474.958 388.40625 L 493.583 369.78125 L 493.583 362.378906 L 480.258781 349.054688 " transform="matrix(1,0,0,1,-341.083,-255.75)"/>
<path style="fill:none;stroke-width:0.5;stroke-linecap:butt;stroke-linejoin:miter;stroke:rgb(0%,0%,100%);stroke-opacity:1;stroke-miterlimit:4;" d="M 477.192375 365.746094 L 473.797844 365.746094 L 450.997063 388.546875 L 450.997063 397.808594 L 465.665031 412.480469 L 474.442375 412.480469 L 491.333 395.585938 L 491.333 379.886719 L 477.192375 365.746094 " transform="matrix(1,0,0,1,-341.083,-255.75)"/>
<path style="fill:none;stroke-width:0.5;stroke-linecap:butt;stroke-linejoin:miter;stroke:rgb(0%,0%,100%);stroke-opacity:1;stroke-miterlimit:4;" d="M 497.442375 344.019531 L 477.196281 364.265625 L 477.196281 400.1875 L 481.965813 404.957031 L 504.875969 404.957031 L 516.333 393.5 L 516.333 362.910156 L 497.442375 344.019531 L 477.196281 364.265625 L 477.196281 366.859375 L 491.333 381 L 505.250969 381 L 512.223625 374.027344 L 512.223625 358.796875 L 497.442375 344.019531 " transform="matrix(1,0,0,1,-341.083,-255.75)"/>
<path style="fill:none;stroke-width:0.5;stroke-linecap:butt;stroke-linejoin:miter;stroke:rgb(0%,0%,100%);stroke-opacity:1;stroke-miterlimit:4;" d="M 493.579094 362.375 L 481.965813 373.992188 L 481.965813 404.957031 L 504.875969 404.957031 L 516.333 393.5 L 516.333 385.128906 L 493.579094 362.375 " transform="matrix(1,0,0,1,-341.083,-255.75)"/>
<path style="fill:none;stroke-width:0.5;stroke-linecap:butt;stroke-linejoin:miter;stroke:rgb(0%,0%,100%);stroke-opacity:1;stroke-miterlimit:4;" d="M 528.833 343.5 L 528.23925 343.5 L 499.672844 372.066406 L 499.672844 400.792969 L 511.125969 412.25 L 535.083 412.25 L 541.333 406 L 541.333 356 L 528.833 343.5 L 528.23925 343.5 L 508.668938 363.070312 L 508.668938 377.585938 L 512.083 381 L 541.333 381 L 541.333 356 L 528.833 343.5 " transform="matrix(1,0,0,1,-341.083,-255.75)"/>
<path style="fill:none;stroke-width:0.5;stroke-linecap:butt;stroke-linejoin:miter;stroke:rgb(0%,0%,100%);stroke-opacity:1;stroke-miterlimit:4;" d="M 528.833 368.5 L 517.750969 368.5 L 499.672844 386.578125 L 499.672844 400.792969 L 511.125969 412.25 L 535.083 412.25 L 541.333 406 L 541.333 381 L 528.833 368.5 " transform="matrix(1,0,0,1,-341.083,-255.75)"/>
<path style="fill:none;stroke-width:0.5;stroke-linecap:butt;stroke-linejoin:miter;stroke:rgb(0%,0%,100%);stroke-opacity:1;stroke-miterlimit:4;" d="M 465.555656 388.546875 L 450.993156 388.546875 L 435.2705 404.273438 L 435.2705 419.214844 L 451.524406 435.472656 L 492.247063 435.472656 L 492.247063 415.238281 L 465.555656 388.546875 " transform="matrix(1,0,0,1,-341.083,-255.75)"/>
<path style="fill:none;stroke-width:0.5;stroke-linecap:butt;stroke-linejoin:miter;stroke:rgb(0%,0%,100%);stroke-opacity:1;stroke-miterlimit:4;" d="M 450.997063 388.546875 L 450.993156 388.546875 L 435.2705 404.273438 L 435.2705 419.214844 L 447.833 431.78125 L 465.665031 413.949219 L 465.665031 403.214844 L 450.997063 388.546875 " transform="matrix(1,0,0,1,-341.083,-255.75)"/>
<path style="fill:none;stroke-width:0.5;stroke-linecap:butt;stroke-linejoin:miter;stroke:rgb(0%,0%,100%);stroke-opacity:1;stroke-miterlimit:4;" d="M 481.965813 404.957031 L 473.188469 404.957031 L 447.833 430.308594 L 447.833 431.78125 L 451.524406 435.472656 L 492.247063 435.472656 L 492.247063 415.238281 L 481.965813 404.957031 " transform="matrix(1,0,0,1,-341.083,-255.75)"/>
<path style="fill:none;stroke-width:0.5;stroke-linecap:butt;stroke-linejoin:miter;stroke:rgb(0%,0%,100%);stroke-opacity:1;stroke-miterlimit:4;" d="M 485.747063 428.972656 L 443.590813 428.972656 L 432.043938 440.523438 L 432.043938 446.707031 L 441.333 456 L 478.833 456 L 492.247063 442.585938 L 492.247063 435.472656 L 485.747063 428.972656 " transform="matrix(1,0,0,1,-341.083,-255.75)"/>
<path style="fill:none;stroke-width:0.5;stroke-linecap:butt;stroke-linejoin:miter;stroke:rgb(0%,0%,100%);stroke-opacity:1;stroke-miterlimit:4;" d="M 452.661125 431.78125 L 440.782219 431.78125 L 432.043938 440.523438 L 432.043938 446.707031 L 441.333 456 L 466.333 456 L 466.333 445.453125 L 452.661125 431.78125 " transform="matrix(1,0,0,1,-341.083,-255.75)"/>
<path style="fill:none;stroke-width:0.5;stroke-linecap:butt;stroke-linejoin:miter;stroke:rgb(0%,0%,100%);stroke-opacity:1;stroke-miterlimit:4;" d="M 485.747063 428.972656 L 450.641594 428.972656 L 447.833 431.78125 L 447.833 437.5 L 466.333 456 L 478.833 456 L 492.247063 442.585938 L 492.247063 435.472656 L 485.747063 428.972656 " transform="matrix(1,0,0,1,-341.083,-255.75)"/>
<path style="fill:none;stroke-width:0.5;stroke-linecap:butt;stroke-linejoin:miter;stroke:rgb(0%,0%,100%);stroke-opacity:1;stroke-miterlimit:4;" d="M 511.125969 400.792969 L 486.125969 400.792969 L 478.833 408.085938 L 478.833 456 L 503.833 456 L 522.583 437.25 L 522.583 412.25 L 511.125969 400.792969 " transform="matrix(1,0,0,1,-341.083,-255.75)"/>
<path style="fill:none;stroke-width:0.5;stroke-linecap:butt;stroke-linejoin:miter;stroke:rgb(0%,0%,100%);stroke-opacity:1;stroke-miterlimit:4;" d="M 499.672844 400.792969 L 486.125969 400.792969 L 478.833 408.085938 L 478.833 456 L 503.833 456 L 503.833 404.957031 L 499.672844 400.792969 " transform="matrix(1,0,0,1,-341.083,-255.75)"/>
<path style="fill:none;stroke-width:0.5;stroke-linecap:butt;stroke-linejoin:miter;stroke:rgb(0%,0%,100%);stroke-opacity:1;stroke-miterlimit:4;" d="M 511.125969 400.792969 L 499.668938 400.792969 L 487.786125 412.679688 L 487.786125 439.953125 L 503.833 456 L 522.583 437.25 L 522.583 412.25 L 511.125969 400.792969 " transform="matrix(1,0,0,1,-341.083,-255.75)"/>
<path style="fill:none;stroke-width:0.5;stroke-linecap:butt;stroke-linejoin:miter;stroke:rgb(0%,0%,100%);stroke-opacity:1;stroke-miterlimit:4;" d="M 528.833 393.5 L 516.333 393.5 L 503.833 406 L 503.833 456 L 541.333 456 L 541.333 406 L 528.833 393.5 L 516.333 393.5 L 503.833 406 L 503.833 418.5 L 519.458 434.125 L 538.208 434.125 L 541.333 431 L 541.333 406 L 528.833 393.5 " transform="matrix(1,0,0,1,-341.083,-255.75)"/>
<path style="fill:none;stroke-width:0.5;stroke-linecap:butt;stroke-linejoin:miter;stroke:rgb(0%,0%,100%);stroke-opacity:1;stroke-miterlimit:4;" d="M 541.333 431 L 522.583 431 L 503.833 449.75 L 503.833 456 L 541.333 456 L 541.333 431 " transform="matrix(1,0,0,1,-341.083,-255.75)"/>
</g>
</svg>
