<?xml version="1.0" encoding="UTF-8" standalone="no"?>
<svg xmlns="http://www.w3.org/2000/svg"
     xmlns:xlink="http://www.w3.org/1999/xlink"
     width="1024px" height="768px" viewBox="0 0 1024 768">
<title>Mesh</title>
<desc>
Creator: GL2PS 1.3.6, (C) 1999-2011 C. Geuzaine
For: DOLFIN_OF_TOMNAERLAND
CreationDate: Tue Jun  3 13:37:39 2014
</desc>
<defs>
</defs>
<g shape-rendering="crispEdges">
<polyline fill="none" stroke="#0000ff" stroke-width="0.5" points="366.333,256 341.333,256 341.333,256 341.333,306 341.333,306 366.333,306 378.833,293.5 378.833,268.5 366.333,256"/>
<polyline fill="none" stroke="#0000ff" stroke-width="0.5" points="391.333,256 366.333,256 361.472,260.861 361.472,307.917 370.625,317.07 390.676,317.07 400.702,307.044 400.702,265.369 391.333,256"/>
<polyline fill="none" stroke="#0000ff" stroke-width="0.5" points="387.159,293.5 353.833,293.5 341.333,306 341.333,331 341.333,331 391.333,331 400.702,321.631 400.702,307.043 387.159,293.5"/>
<polyline fill="none" stroke="#0000ff" stroke-width="0.5" points="377.403,317.07 355.264,317.07 341.333,331 341.333,356 344.261,358.928 393.066,358.928 405.529,346.464 405.529,345.196 377.403,317.07"/>
<polyline fill="none" stroke="#0000ff" stroke-width="0.5" points="441.333,256 391.333,256 391.333,256 391.333,267.826 406.535,283.027 432.025,283.027 441.333,273.718 441.333,256 441.333,256"/>
<polyline fill="none" stroke="#0000ff" stroke-width="0.5" points="427.225,272.61 396.119,272.61 395.372,273.358 395.372,301.713 415.699,322.041 438.708,322.041 447.331,313.418 447.331,292.717 427.225,272.61"/>
<polyline fill="none" stroke="#0000ff" stroke-width="0.5" points="434.005,305.282 396.91,305.282 386.781,315.411 386.781,326.448 398.52,338.187 438.816,338.187 438.817,338.185 438.817,310.094 434.005,305.282"/>
<polyline fill="none" stroke="#0000ff" stroke-width="0.5" points="427.104,326.472 395.861,326.472 383.14,339.193 383.14,348.219 401.775,366.854 430.48,366.854 441.333,356 441.333,340.702 427.104,326.472"/>
<polyline fill="none" stroke="#0000ff" stroke-width="0.5" points="383.756,348.218 349.115,348.218 341.333,356 341.333,381 344.059,383.725 388.379,383.725 397.795,374.309 397.795,362.257 383.756,348.218"/>
<polyline fill="none" stroke="#0000ff" stroke-width="0.5" points="377.852,366.539 355.794,366.539 341.333,381 341.333,406 344.165,408.831 388.502,408.831 399.667,397.667 399.667,388.354 377.852,366.539"/>
<polyline fill="none" stroke="#0000ff" stroke-width="0.5" points="369.948,402.647 344.686,402.647 341.333,406 341.333,456 341.333,456 366.333,456 376.131,446.202 376.131,408.831 369.948,402.647"/>
<polyline fill="none" stroke="#0000ff" stroke-width="0.5" points="370.71,394.752 364.789,394.752 355.48,404.061 355.48,445.146 366.333,456 391.333,456 395.978,451.356 395.978,420.019 370.71,394.752"/>
<polyline fill="none" stroke="#0000ff" stroke-width="0.5" points="436.736,351.403 392.988,351.403 377.853,366.539 377.853,366.54 396.901,385.588 433.266,385.588 446.525,372.33 446.525,361.191 436.736,351.403"/>
<polyline fill="none" stroke="#0000ff" stroke-width="0.5" points="428.939,367.055 403.114,367.055 376.131,394.039 376.131,408.831 381.553,414.252 441.129,414.252 448.661,406.72 448.661,386.777 428.939,367.055"/>
<polyline fill="none" stroke="#0000ff" stroke-width="0.5" points="399.666,397.667 399.667,397.667 379.572,417.761 379.572,444.239 391.333,456 416.333,456 419.477,452.857 419.477,417.478 399.666,397.667"/>
<polyline fill="none" stroke="#0000ff" stroke-width="0.5" points="445.978,404.034 416.825,404.034 407.652,413.207 407.652,447.319 416.333,456 441.333,456 448.661,448.672 448.661,406.717 445.978,404.034"/>
<polyline fill="none" stroke="#0000ff" stroke-width="0.5" points="466.333,256 441.333,256 434.006,263.328 434.006,305.283 442.14,313.417 455.175,313.417 466.333,302.258 466.333,256 466.333,256"/>
<polyline fill="none" stroke="#0000ff" stroke-width="0.5" points="491.333,256 466.333,256 453.833,268.5 453.833,299.28 468.887,314.333 483,314.333 492.732,304.602 492.732,257.398 491.333,256"/>
<polyline fill="none" stroke="#0000ff" stroke-width="0.5" points="473.505,294.733 448.507,294.733 434.317,308.924 434.317,322.04 442.616,330.338 494.491,330.338 498.252,326.578 498.252,319.48 473.505,294.733"/>
<polyline fill="none" stroke="#0000ff" stroke-width="0.5" points="475.464,322.041 434.317,322.041 434.317,322.04 434.317,348.984 442.271,356.937 484.525,356.937 497.443,344.019 497.443,344.019 475.464,322.041"/>
<polyline fill="none" stroke="#0000ff" stroke-width="0.5" points="516.333,256 491.333,256 475.433,271.9 475.433,296.661 489.385,310.613 505.321,310.613 522.838,293.096 522.838,262.505 516.333,256"/>
<polyline fill="none" stroke="#0000ff" stroke-width="0.5" points="541.333,256 516.333,256 503.095,269.239 503.095,308.386 506.348,311.64 535.694,311.64 541.333,306 541.333,256 541.333,256"/>
<polyline fill="none" stroke="#0000ff" stroke-width="0.5" points="492.732,297.044 492.733,297.044 472.748,317.03 472.748,345.749 489.375,362.376 510.125,362.376 515.143,357.358 515.143,319.455 492.732,297.044"/>
<polyline fill="none" stroke="#0000ff" stroke-width="0.5" points="528.833,293.5 522.434,293.5 505.321,310.612 505.321,353.377 512.222,360.278 537.055,360.278 541.333,356 541.333,306 528.833,293.5"/>
<polyline fill="none" stroke="#0000ff" stroke-width="0.5" points="458.64,356 439.994,356 428.939,367.054 428.939,386.996 448.662,406.718 456.646,406.718 474.958,388.406 474.958,372.318 458.64,356"/>
<polyline fill="none" stroke="#0000ff" stroke-width="0.5" points="480.26,349.056 467.458,349.056 450.996,365.518 450.996,397.81 465.666,412.479 474.441,412.479 493.582,393.339 493.582,362.377 480.26,349.056"/>
<polyline fill="none" stroke="#0000ff" stroke-width="0.5" points="497.443,344.019 497.442,344.019 477.195,364.267 477.195,400.187 481.964,404.956 504.877,404.956 516.333,393.5 516.333,362.909 497.443,344.019"/>
<polyline fill="none" stroke="#0000ff" stroke-width="0.5" points="528.833,343.5 528.238,343.5 499.671,372.067 499.671,400.794 511.127,412.25 535.083,412.25 541.333,406 541.333,356 528.833,343.5"/>
<polyline fill="none" stroke="#0000ff" stroke-width="0.5" points="465.556,388.548 450.994,388.548 435.269,404.273 435.269,419.216 451.524,435.471 492.249,435.471 492.248,435.472 492.248,415.239 465.556,388.548"/>
<polyline fill="none" stroke="#0000ff" stroke-width="0.5" points="485.748,428.973 443.592,428.973 432.042,440.523 432.042,446.708 441.333,456 478.833,456 492.248,442.586 492.248,435.472 485.748,428.973"/>
<polyline fill="none" stroke="#0000ff" stroke-width="0.5" points="511.127,400.794 486.127,400.794 478.833,408.087 478.833,456 478.833,456 503.833,456 522.583,437.25 522.583,412.25 511.127,400.794"/>
<polyline fill="none" stroke="#0000ff" stroke-width="0.5" points="528.833,393.5 516.333,393.5 503.833,406 503.833,456 503.833,456 541.333,456 541.333,456 541.333,406 528.833,393.5"/>
</g>
</svg>
